<svg aria-hidden="true" style="position: absolute; width: 0; height: 0; overflow: hidden;" version="1.1" xmlns="http://www.w3.org/2000/svg" xmlns:xlink="http://www.w3.org/1999/xlink">
<defs>
<symbol id="icon-sun" viewBox="0 0 32 32">
<path d="M16 9c-3.859 0-7 3.141-7 7s3.141 7 7 7 7-3.141 7-7c0-3.859-3.141-7-7-7zM16 7c0.552 0 1-0.447 1-1v-2c0-0.552-0.448-1-1-1-0.553 0-1 0.448-1 1v2c0 0.553 0.447 1 1 1zM16 25c-0.553 0-1 0.448-1 1v2c0 0.553 0.447 1 1 1 0.552 0 1-0.447 1-1v-2c0-0.552-0.448-1-1-1zM23.776 9.635l1.414-1.414c0.391-0.391 0.391-1.023 0-1.414s-1.023-0.391-1.414 0l-1.414 1.414c-0.391 0.391-0.391 1.023 0 1.414s1.023 0.391 1.414 0zM8.221 22.366l-1.414 1.414c-0.391 0.391-0.391 1.023 0 1.414s1.023 0.391 1.414 0l1.414-1.414c0.391-0.393 0.391-1.023 0-1.414s-1.023-0.393-1.414 0zM7 16c0-0.552-0.448-1-1-1h-2c-0.553 0-1 0.448-1 1 0 0.553 0.447 1 1 1h2c0.552 0 1-0.447 1-1zM28 15h-2c-0.553 0-1 0.448-1 1 0 0.553 0.447 1 1 1h2c0.552 0 1-0.447 1-1 0-0.552-0.448-1-1-1zM8.22 9.635c0.391 0.391 1.023 0.391 1.414 0s0.391-1.023 0-1.414l-1.414-1.414c-0.391-0.391-1.024-0.391-1.414 0s-0.391 1.023 0 1.414l1.414 1.414zM23.779 22.363c-0.393-0.391-1.023-0.391-1.414 0s-0.393 1.023 0 1.414l1.414 1.414c0.391 0.391 1.023 0.391 1.414 0s0.391-1.023 0-1.414l-1.414-1.414z"></path>
</symbol>
<symbol id="icon-moon" viewBox="0 0 32 32">
<path d="M15.505 16.496c-1.97-1.971-2.499-4.819-1.626-7.284-0.953 0.337-1.854 0.865-2.616 1.626-2.734 2.734-2.734 7.167 0 9.9 2.733 2.733 7.164 2.735 9.898 0 0.764-0.762 1.29-1.663 1.626-2.616-2.463 0.872-5.312 0.344-7.283-1.626z"></path>
</symbol>
<symbol id="icon-twitter" viewBox="0 0 32 32">
<path d="M32 7.075c-1.175 0.525-2.444 0.875-3.769 1.031 1.356-0.813 2.394-2.1 2.887-3.631-1.269 0.75-2.675 1.3-4.169 1.594-1.2-1.275-2.906-2.069-4.794-2.069-3.625 0-6.563 2.938-6.563 6.563 0 0.512 0.056 1.012 0.169 1.494-5.456-0.275-10.294-2.888-13.531-6.862-0.563 0.969-0.887 2.1-0.887 3.3 0 2.275 1.156 4.287 2.919 5.463-1.075-0.031-2.087-0.331-2.975-0.819 0 0.025 0 0.056 0 0.081 0 3.181 2.263 5.838 5.269 6.437-0.55 0.15-1.131 0.231-1.731 0.231-0.425 0-0.831-0.044-1.237-0.119 0.838 2.606 3.263 4.506 6.131 4.563-2.25 1.762-5.075 2.813-8.156 2.813-0.531 0-1.050-0.031-1.569-0.094 2.913 1.869 6.362 2.95 10.069 2.95 12.075 0 18.681-10.006 18.681-18.681 0-0.287-0.006-0.569-0.019-0.85 1.281-0.919 2.394-2.075 3.275-3.394z"></path>
</symbol>
<symbol id="icon-github" viewBox="0 0 32 32">
<path d="M16 0.395c-8.836 0-16 7.163-16 16 0 7.069 4.585 13.067 10.942 15.182 0.8 0.148 1.094-0.347 1.094-0.77 0-0.381-0.015-1.642-0.022-2.979-4.452 0.968-5.391-1.888-5.391-1.888-0.728-1.849-1.776-2.341-1.776-2.341-1.452-0.993 0.11-0.973 0.11-0.973 1.606 0.113 2.452 1.649 2.452 1.649 1.427 2.446 3.743 1.739 4.656 1.33 0.143-1.034 0.558-1.74 1.016-2.14-3.554-0.404-7.29-1.777-7.29-7.907 0-1.747 0.625-3.174 1.649-4.295-0.166-0.403-0.714-2.030 0.155-4.234 0 0 1.344-0.43 4.401 1.64 1.276-0.355 2.645-0.532 4.005-0.539 1.359 0.006 2.729 0.184 4.008 0.539 3.054-2.070 4.395-1.64 4.395-1.64 0.871 2.204 0.323 3.831 0.157 4.234 1.026 1.12 1.647 2.548 1.647 4.295 0 6.145-3.743 7.498-7.306 7.895 0.574 0.497 1.085 1.47 1.085 2.963 0 2.141-0.019 3.864-0.019 4.391 0 0.426 0.288 0.925 1.099 0.768 6.354-2.118 10.933-8.113 10.933-15.18 0-8.837-7.164-16-16-16z"></path>
</symbol>
<symbol id="icon-linkedin" viewBox="0 0 32 32">
<path d="M29 0h-26c-1.65 0-3 1.35-3 3v26c0 1.65 1.35 3 3 3h26c1.65 0 3-1.35 3-3v-26c0-1.65-1.35-3-3-3zM12 26h-4v-14h4v14zM10 10c-1.106 0-2-0.894-2-2s0.894-2 2-2c1.106 0 2 0.894 2 2s-0.894 2-2 2zM26 26h-4v-8c0-1.106-0.894-2-2-2s-2 0.894-2 2v8h-4v-14h4v2.481c0.825-1.131 2.087-2.481 3.5-2.481 2.488 0 4.5 2.238 4.5 5v9z"></path>
</symbol>
<symbol id="icon-adobephotoshop" viewBox="0 0 32 32">
<path fill="#00c8ff" style="fill: var(--color1, #00c8ff)" d="M0 0.4v31.2h32v-31.2zM1.333 1.733h29.333v28.533h-29.333zM7.733 7.707c0-0.089 0.187-0.155 0.299-0.155 0.859-0.044 2.117-0.067 3.437-0.067 3.696 0 5.133 2.027 5.133 4.621 0 3.387-2.456 4.84-5.469 4.84-0.507 0-0.68-0.023-1.033-0.023v5.123c0 0.111-0.044 0.155-0.153 0.155h-2.059c-0.111 0-0.153-0.040-0.153-0.151zM10.1 14.789c0.307 0.021 0.549 0.021 1.080 0.021 1.56 0 3.027-0.549 3.027-2.661 0-1.693-1.048-2.552-2.829-2.552-0.528 0-1.033 0.021-1.276 0.044zM21.576 13.205c-1.056 0-1.408 0.528-1.408 0.968 0 0.484 0.24 0.813 1.649 1.54 2.091 1.013 2.749 1.98 2.749 3.409 0 2.133-1.627 3.28-3.827 3.28-1.168 0-2.16-0.244-2.733-0.573-0.087-0.044-0.107-0.109-0.107-0.22v-1.956c0-0.133 0.064-0.177 0.152-0.112 0.832 0.551 1.803 0.792 2.683 0.792 1.056 0 1.496-0.44 1.496-1.035 0-0.484-0.307-0.903-1.649-1.607-1.893-0.907-2.685-1.827-2.685-3.369 0-1.716 1.341-3.147 3.673-3.147 1.147 0 1.952 0.176 2.392 0.373 0.109 0.067 0.133 0.176 0.133 0.264v1.827c0 0.111-0.067 0.177-0.2 0.133-0.592-0.352-1.467-0.573-2.319-0.568z"></path>
</symbol>
<symbol id="icon-adobepremiere" viewBox="0 0 32 32">
<path fill="#ea77ff" style="fill: var(--color2, #ea77ff)" d="M0 0.4v31.2h32v-31.2zM1.333 1.733h29.333v28.533h-29.333zM8.396 7.704c0-0.088 0.023-0.155 0.133-0.155 0.857-0.044 2.111-0.067 3.431-0.067 3.696 0 5.303 2.025 5.303 4.621 0 3.387-2.452 4.84-5.465 4.84-0.507 0-0.683-0.023-1.035-0.023v5.124c0 0.111-0.044 0.155-0.153 0.155h-2.059c-0.111 0-0.155-0.044-0.155-0.155zM10.763 14.788c0.308 0.021 0.551 0.021 1.079 0.021 1.561 0 3.023-0.549 3.023-2.661 0-1.693-1.043-2.552-2.825-2.552-0.528 0-1.033 0.021-1.276 0.044zM19.296 13.577c0-0.153 0-0.549-0.065-1.297 0-0.111 0.015-0.133 0.103-0.176 1.445-0.572 3.119-0.91 4.87-0.924l0.006-0c0.109 0 0.153 0.021 0.153 0.132v1.936c0 0.109-0.035 0.132-0.145 0.132-0.142-0.009-0.308-0.015-0.476-0.015-0.728 0-1.431 0.102-2.098 0.292l0.054-0.013v8.401c0 0.111-0.045 0.155-0.155 0.155h-2.093c-0.109 0-0.153-0.044-0.153-0.155z"></path>
</symbol>
<symbol id="icon-blender" viewBox="0 0 32 32">
<path fill="#f5792a" style="fill: var(--color3, #f5792a)" d="M16.68 17.619c0.061-1.067 0.584-2.008 1.373-2.675 0.785-0.655 1.804-1.053 2.917-1.053 0.011 0 0.023 0 0.034 0h-0.002c1.133 0 2.175 0.4 2.948 1.053 0.789 0.667 1.311 1.608 1.371 2.673 0.060 1.097-0.38 2.115-1.153 2.871-0.81 0.774-1.91 1.251-3.121 1.251-0.016 0-0.031-0-0.047-0l0.002 0c-0.013 0-0.029 0-0.045 0-1.212 0-2.313-0.477-3.125-1.253l0.002 0.002c-0.773-0.756-1.213-1.773-1.153-2.869zM9.8 19.775c0.008 0.419 0.141 1.229 0.341 1.864 0.46 1.427 1.187 2.656 2.13 3.683l-0.006-0.007c1.020 1.118 2.257 2.020 3.646 2.64l0.070 0.028c1.416 0.64 3.070 1.014 4.812 1.014 0.024 0 0.048-0 0.072-0l-0.004 0c0.007 0 0.015 0 0.024 0 1.757 0 3.425-0.379 4.928-1.060l-0.075 0.030c1.458-0.654 2.694-1.559 3.705-2.671l0.008-0.009c0.935-1.023 1.662-2.253 2.103-3.613l0.020-0.070c0.271-0.832 0.427-1.789 0.427-2.783 0-0.464-0.034-0.92-0.1-1.366l0.006 0.051c-0.203-1.394-0.681-2.646-1.378-3.744l0.023 0.039c-0.672-1.066-1.492-1.967-2.446-2.706l-0.024-0.018h0.003l-10.024-7.696c-0.656-0.504-1.759-0.501-2.48 0.003-0.729 0.509-0.812 1.353-0.164 1.887l-0.001 0.001 4.168 3.391-12.724 0.013c-1.051 0.001-2.060 0.691-2.26 1.563-0.205 0.887 0.507 1.623 1.6 1.627v0.003l6.44-0.013-11.539 8.856c-1.084 0.829-1.433 2.211-0.751 3.084 0.693 0.889 2.167 0.891 3.263 0.005l6.272-5.132c0 0-0.092 0.693-0.085 1.108zM25.92 22.096c-1.293 1.317-3.101 2.064-5.060 2.067-1.96 0.005-3.769-0.736-5.063-2.051-0.595-0.597-1.065-1.318-1.368-2.121l-0.014-0.041c-0.213-0.574-0.336-1.238-0.336-1.93 0-1.013 0.264-1.965 0.727-2.79l-0.015 0.029c0.404-0.718 0.918-1.324 1.526-1.819l0.012-0.009c1.256-1.024 2.855-1.577 4.528-1.58 1.675-0.003 3.273 0.547 4.531 1.567 0.64 0.521 1.16 1.139 1.536 1.823 0.372 0.657 0.62 1.429 0.694 2.253l0.002 0.022c0.013 0.146 0.021 0.315 0.021 0.486 0 0.692-0.125 1.355-0.352 1.968l0.013-0.039c-0.317 0.846-0.786 1.569-1.38 2.168l0-0z"></path>
</symbol>
<symbol id="icon-bootstrap" viewBox="0 0 32 32">
<path fill="#563d7c" style="fill: var(--color4, #563d7c)" d="M26.667 0h-21.333c-2.943 0.008-5.325 2.391-5.333 5.333v21.333c0 2.933 2.4 5.333 5.333 5.333h21.333c2.933 0 5.333-2.4 5.333-5.333v-21.333c0-2.933-2.4-5.333-5.333-5.333zM23.751 22.473c-0.267 0.643-0.689 1.209-1.231 1.645-0.56 0.453-1.269 0.827-2.143 1.093-0.872 0.271-1.909 0.407-3.111 0.407h-8.576v-18.667h9.069c1.677 0 3.021 0.377 4.027 1.147 1.013 0.773 1.517 1.925 1.517 3.48 0 0.94-0.229 1.747-0.691 2.413-0.459 0.663-1.12 1.181-1.973 1.541v0.061c1.139 0.24 2.020 0.78 2.6 1.62s0.877 1.901 0.877 3.183c0 0.717-0.139 1.4-0.4 2.037zM20.049 17.873c-0.547-0.5-1.315-0.744-2.307-0.744h-5.763v5.824h5.779c0.987 0 1.76-0.256 2.307-0.773 0.547-0.513 0.827-1.245 0.827-2.187-0.009-0.92-0.28-1.632-0.827-2.12zM19.249 14.109c0.528-0.448 0.787-1.089 0.787-1.925 0-0.939-0.233-1.605-0.707-1.987-0.469-0.38-1.147-0.577-2.037-0.577h-5.333v5.151h5.333c0.777 0 1.44-0.227 1.957-0.661z"></path>
</symbol>
<symbol id="icon-css3" viewBox="0 0 32 32">
<path fill="#1572b6" style="fill: var(--color5, #1572b6)" d="M2 0h28l-2.547 28.751-11.484 3.249-11.42-3.251zM24.787 5.884l-17.573-0.004 0.284 3.496 13.5 0.003-0.34 3.621h-8.853l0.32 3.431h8.243l-0.488 4.697-3.88 1.072-3.941-1.080-0.251-2.813h-3.48l0.387 5.14 7.287 2.271 7.164-2.040z"></path>
</symbol>
<symbol id="icon-csswizardry" viewBox="0 0 32 32">
<path fill="#f43059" style="fill: var(--color6, #f43059)" d="M0.040 21.904v-20.413c0-0.824 0.667-1.491 1.489-1.491h28.871c0.832 0 1.493 0.667 1.493 1.493v19.68c-0.893-0.547-1.947-0.821-3.143-0.821-1.672 0-2.94 0.4-3.805 1.195-0.867 0.797-1.293 1.771-1.293 2.967 0 1.293 0.44 2.253 1.333 2.867 0.52 0.38 1.48 0.72 2.853 1.016l1.4 0.32c0.84 0.177 1.427 0.4 1.813 0.613 0.373 0.244 0.573 0.583 0.573 1.020 0 0.755-0.387 1.273-1.16 1.531l-0.040 0.021h-2.947c-0.383-0.139-0.68-0.339-0.92-0.6-0.24-0.299-0.4-0.733-0.48-1.351h-2.64c0 0.755 0.137 1.393 0.44 1.973h-2.24c0.253-0.52 0.4-1.097 0.4-1.756 0-1.173-0.4-2.067-1.181-2.688-0.499-0.396-1.253-0.713-2.251-0.956l-2.293-0.536c-0.88-0.187-1.453-0.373-1.733-0.533-0.413-0.24-0.613-0.6-0.613-1.053 0-0.507 0.213-0.907 0.627-1.187 0.44-0.28 1-0.413 1.72-0.413 0.653 0 1.173 0.12 1.613 0.347 0.659 0.341 1 0.92 1.053 1.716h2.667c-0.040-1.395-0.553-2.471-1.533-3.205-0.992-0.733-2.167-1.113-3.56-1.113-1.673 0-2.927 0.4-3.804 1.173-0.853 0.777-1.293 1.773-1.293 2.947 0 1.293 0.44 2.251 1.333 2.867 0.536 0.36 1.493 0.697 2.867 1.013l1.393 0.32c0.813 0.18 1.413 0.38 1.813 0.62 0.373 0.24 0.573 0.573 0.573 1.013 0 0.76-0.4 1.253-1.173 1.533h-2.987c-0.379-0.141-0.693-0.341-0.92-0.62-0.24-0.293-0.413-0.752-0.493-1.352h-2.689c0 0.744 0.14 1.4 0.427 1.973h-2.787c0.44-0.693 0.737-1.493 0.884-2.387h-2.737c-0.187 0.68-0.416 1.197-0.7 1.533-0.347 0.44-0.8 0.72-1.36 0.86h-1.636c-0.6-0.14-1.116-0.477-1.533-1.013-0.619-0.744-0.917-1.859-0.917-3.333 0-1.493 0.307-2.627 0.88-3.44 0.6-0.817 1.373-1.213 2.387-1.213 1 0 1.733 0.28 2.253 0.859 0.28 0.32 0.52 0.8 0.693 1.435h2.773c-0.040-0.824-0.347-1.653-0.915-2.48-1.029-1.467-2.659-2.2-4.885-2.2-1.547 0-2.845 0.48-3.88 1.413zM31.899 26.752v-2.072h-0.688c-0.047-0.796-0.4-1.363-1.044-1.699-0.417-0.219-0.956-0.331-1.591-0.331-0.72 0-1.273 0.147-1.693 0.429-0.416 0.287-0.637 0.691-0.637 1.203 0 0.473 0.221 0.827 0.636 1.060 0.293 0.14 0.867 0.339 1.747 0.539l2.293 0.547c0.4 0.080 0.747 0.2 1.067 0.307z"></path>
</symbol>
<symbol id="icon-dot-net" viewBox="0 0 32 32">
<path fill="#5c2d91" style="fill: var(--color7, #5c2d91)" d="M4.223 10.087v11.665h1.364v-8.433c0.003-0.094 0.004-0.204 0.004-0.314 0-0.453-0.025-0.9-0.074-1.339l0.005 0.054h0.051c0.108 0.28 0.233 0.52 0.38 0.744l-0.009-0.015 5.996 9.303h1.676v-11.665h-1.362v8.203c-0.002 0.079-0.003 0.172-0.003 0.265 0 0.511 0.031 1.014 0.091 1.509l-0.006-0.059h-0.031c-0.073-0.141-0.231-0.4-0.474-0.78l-5.836-9.138zM16.643 10.087v11.665h6.2l0.006-1.28h-4.812v-4.044h4.211v-1.229h-4.211v-3.878h4.518v-1.235zM23.893 10.087v1.235h3.353v10.431h1.362v-10.431h3.392v-1.235zM0.871 20.089c-0.241 0.006-0.456 0.11-0.608 0.274l-0.001 0.001c-0.162 0.162-0.263 0.386-0.263 0.634 0 0.002 0 0.004 0 0.006v-0c-0 0.003-0 0.008-0 0.012 0 0.246 0.1 0.468 0.262 0.628l0 0c0.158 0.166 0.38 0.269 0.626 0.269 0.005 0 0.010-0 0.014-0h-0.001c0.002 0 0.004 0 0.006 0 0.249 0 0.474-0.103 0.634-0.268l0-0c0.166-0.16 0.269-0.384 0.269-0.632 0-0.003 0-0.006-0-0.009v0c0-0.001 0-0.002 0-0.003 0-0.25-0.103-0.475-0.268-0.637l-0-0c-0.16-0.169-0.387-0.275-0.638-0.275-0.001 0-0.002 0-0.002 0h0c-0.004-0-0.008-0-0.012-0-0.007 0-0.013 0-0.020 0l0.001-0z"></path>
</symbol>
<symbol id="icon-figma" viewBox="0 0 32 32">
<path fill="#f24e1e" style="fill: var(--color8, #f24e1e)" d="M16 16c0-2.946 2.388-5.333 5.333-5.333s5.333 2.388 5.333 5.333v0c0 2.946-2.388 5.333-5.333 5.333s-5.333-2.388-5.333-5.333v0zM5.333 26.667c0-2.946 2.388-5.333 5.333-5.333v0h5.333v5.333c0 2.946-2.388 5.333-5.333 5.333s-5.333-2.388-5.333-5.333v0zM16 0v10.667h5.333c2.946 0 5.333-2.388 5.333-5.333s-2.388-5.333-5.333-5.333v0zM5.333 5.333c0 2.946 2.388 5.333 5.333 5.333v0h5.333v-10.667h-5.333c-2.946 0-5.333 2.388-5.333 5.333v0zM5.333 16c0 2.946 2.388 5.333 5.333 5.333v0h5.333v-10.667h-5.333c-2.946 0-5.333 2.388-5.333 5.333v0z"></path>
</symbol>
<symbol id="icon-git1" viewBox="0 0 32 32">
<path fill="#f05032" style="fill: var(--color9, #f05032)" d="M31.395 14.573l-13.972-13.971c-0.805-0.804-2.109-0.804-2.917 0l-2.895 2.9 3.68 3.68c0.86-0.287 1.839-0.093 2.519 0.588 0.688 0.687 0.877 1.677 0.584 2.533l3.544 3.547c0.86-0.297 1.849-0.104 2.533 0.58 0.961 0.96 0.961 2.512 0 3.472-0.959 0.959-2.508 0.959-3.467 0-0.719-0.721-0.899-1.783-0.539-2.661l-3.319-3.301v8.7c0.235 0.115 0.456 0.271 0.651 0.464 0.951 0.961 0.951 2.511 0 3.467-0.959 0.961-2.519 0.961-3.479 0-0.959-0.959-0.959-2.505 0-3.464 0.243-0.24 0.516-0.421 0.807-0.541v-8.785c-0.289-0.121-0.565-0.296-0.8-0.535-0.727-0.727-0.901-1.789-0.528-2.679l-3.616-3.633-9.581 9.575c-0.8 0.807-0.8 2.112 0 2.919l13.973 13.969c0.805 0.805 2.109 0.805 2.915 0l13.907-13.907c0.807-0.804 0.807-2.109 0-2.916z"></path>
</symbol>
<symbol id="icon-html5" viewBox="0 0 32 32">
<path fill="#e34f26" style="fill: var(--color10, #e34f26)" d="M2 0h28l-2.547 28.751-11.484 3.249-11.419-3.251zM11.375 13l-0.309-3.624 13.412 0.004 0.307-3.496-17.568-0.004 0.931 10.68h12.168l-0.435 4.568-3.88 1.072-3.94-1.080-0.251-2.813h-3.479l0.44 5.561 7.229 1.933 7.172-1.924 0.992-10.876z"></path>
</symbol>
<symbol id="icon-javascript" viewBox="0 0 32 32">
<path fill="#f7df1e" style="fill: var(--color11, #f7df1e)" d="M0 0h32v32h-32zM29.379 24.368c-0.233-1.46-1.184-2.687-4.004-3.831-0.981-0.46-2.072-0.78-2.396-1.52-0.121-0.44-0.14-0.68-0.061-0.94 0.2-0.861 1.22-1.12 2.020-0.88 0.52 0.16 1 0.56 1.301 1.2 1.379-0.901 1.379-0.901 2.34-1.5-0.36-0.56-0.539-0.801-0.781-1.040-0.84-0.94-1.959-1.42-3.779-1.379l-0.94 0.119c-0.901 0.22-1.76 0.7-2.28 1.34-1.52 1.721-1.081 4.721 0.759 5.961 1.82 1.36 4.481 1.659 4.821 2.94 0.32 1.56-1.16 2.060-2.621 1.88-1.081-0.24-1.68-0.781-2.34-1.781l-2.44 1.401c0.28 0.64 0.6 0.919 1.080 1.479 2.32 2.341 8.12 2.221 9.161-1.339 0.039-0.12 0.32-0.94 0.099-2.2zM17.401 14.708h-2.997c0 2.584-0.012 5.152-0.012 7.74 0 1.643 0.084 3.151-0.184 3.615-0.44 0.919-1.573 0.801-2.088 0.64-0.528-0.261-0.796-0.621-1.107-1.14-0.084-0.14-0.147-0.261-0.169-0.261l-2.433 1.5c0.407 0.84 1 1.563 1.765 2.023 1.14 0.68 2.672 0.9 4.276 0.54 1.044-0.301 1.944-0.921 2.415-1.881 0.68-1.24 0.536-2.76 0.529-4.461 0.016-2.739 0-5.479 0-8.239z"></path>
</symbol>
<symbol id="icon-node-dot-js" viewBox="0 0 32 32">
<path fill="#393" style="fill: var(--color12, #393)" d="M15.997 32c-0.428 0-0.855-0.112-1.229-0.329l-3.915-2.316c-0.584-0.327-0.299-0.443-0.107-0.511 0.78-0.271 0.937-0.333 1.771-0.805 0.087-0.049 0.201-0.031 0.291 0.023l3.008 1.785c0.109 0.060 0.263 0.060 0.363 0l11.727-6.768c0.109-0.063 0.179-0.188 0.179-0.317v-13.533c0-0.132-0.071-0.256-0.183-0.323l-11.721-6.763c-0.108-0.063-0.252-0.063-0.361 0l-11.719 6.764c-0.113 0.065-0.185 0.193-0.185 0.321v13.533c0 0.129 0.072 0.252 0.185 0.313l3.212 1.856c1.743 0.872 2.811-0.155 2.811-1.187v-13.361c0-0.189 0.152-0.337 0.341-0.337h1.487c0.185 0 0.34 0.149 0.34 0.337v13.361c0 2.327-1.267 3.66-3.472 3.66-0.677 0-1.212 0-2.701-0.735l-3.077-1.769c-0.76-0.439-1.229-1.26-1.229-2.139v-13.533c0-0.879 0.471-1.7 1.229-2.137l11.727-6.776c0.743-0.42 1.728-0.42 2.464 0l11.725 6.776c0.76 0.439 1.232 1.259 1.232 2.137v13.533c0 0.879-0.472 1.697-1.232 2.139l-11.725 6.771c-0.373 0.217-0.799 0.329-1.233 0.329zM25.465 18.657c0-2.533-1.712-3.208-5.316-3.684-3.641-0.481-4.012-0.731-4.012-1.583 0-0.704 0.313-1.644 3.011-1.644 2.409 0 3.297 0.519 3.663 2.143 0.032 0.153 0.172 0.265 0.329 0.265h1.521c0.095 0 0.184-0.041 0.248-0.108 0.064-0.072 0.099-0.164 0.089-0.261-0.236-2.797-2.095-4.101-5.851-4.101-3.344 0-5.339 1.411-5.339 3.777 0 2.567 1.984 3.276 5.193 3.593 3.84 0.376 4.137 0.937 4.137 1.692 0 1.311-1.052 1.869-3.523 1.869-3.103 0-3.785-0.779-4.015-2.323-0.027-0.165-0.168-0.287-0.337-0.287h-1.516c-0.188 0-0.339 0.149-0.339 0.337 0 1.976 1.075 4.331 6.207 4.331 3.717 0.001 5.848-1.461 5.848-4.017z"></path>
</symbol>
<symbol id="icon-npm" viewBox="0 0 32 32">
<path fill="#cb3837" style="fill: var(--color13, #cb3837)" d="M0 9.779v10.667h8.888v1.776h7.112v-1.776h16v-10.667zM8.888 18.664h-1.776v-5.333h-1.78v5.333h-3.552v-7.108h7.108zM14.221 18.664v1.781h-3.553v-8.889h7.112v7.109h-3.559zM30.223 18.664h-1.773v-5.333h-1.781v5.333h-1.78v-5.333h-1.773v5.333h-3.561v-7.108h10.669zM14.22 13.333h1.78v3.556h-1.78z"></path>
</symbol>
<symbol id="icon-php" viewBox="0 0 32 32">
<path fill="#777bb4" style="fill: var(--color14, #777bb4)" d="M9.347 13.609h-1.259l-0.687 3.531h1.117c0.741 0 1.293-0.14 1.656-0.419 0.363-0.28 0.607-0.745 0.733-1.399 0.123-0.627 0.067-1.069-0.165-1.327-0.233-0.257-0.697-0.387-1.396-0.387zM16 7.584c-8.836 0-16 3.768-16 8.416s7.164 8.417 16 8.417 16-3.769 16-8.417-7.164-8.416-16-8.416zM11.653 17.519c-0.348 0.333-0.767 0.584-1.223 0.735-0.448 0.144-1.020 0.219-1.713 0.219h-1.575l-0.436 2.241h-1.837l1.64-8.435h3.533c1.063 0 1.837 0.279 2.325 0.837 0.488 0.557 0.635 1.336 0.44 2.336-0.082 0.425-0.223 0.803-0.416 1.148l0.010-0.019c-0.191 0.34-0.44 0.653-0.748 0.937zM17.019 18.472l0.724-3.732c0.084-0.424 0.052-0.715-0.091-0.868-0.143-0.155-0.448-0.232-0.916-0.232h-1.456l-0.939 4.833h-1.824l1.64-8.436h1.823l-0.436 2.243h1.624c1.023 0 1.727 0.179 2.115 0.535s0.504 0.933 0.351 1.732l-0.763 3.925zM27.148 15.452c-0.080 0.425-0.221 0.803-0.416 1.148l0.010-0.018c-0.191 0.34-0.44 0.653-0.748 0.937-0.338 0.323-0.746 0.574-1.2 0.728l-0.023 0.007c-0.448 0.144-1.020 0.219-1.715 0.219h-1.573l-0.436 2.243h-1.837l1.64-8.435h3.532c1.063 0 1.837 0.279 2.325 0.837 0.488 0.556 0.636 1.335 0.441 2.335zM23.688 13.609h-1.257l-0.688 3.531h1.117c0.743 0 1.295-0.14 1.656-0.419 0.363-0.28 0.607-0.745 0.735-1.399 0.123-0.627 0.065-1.069-0.167-1.327s-0.699-0.387-1.396-0.387z"></path>
</symbol>
<symbol id="icon-react" viewBox="0 0 32 32">
<path fill="#61dafb" style="fill: var(--color15, #61dafb)" d="M16 13.148c-1.575 0-2.852 1.277-2.852 2.852s1.277 2.852 2.852 2.852v0c1.575 0 2.852-1.277 2.852-2.852s-1.277-2.852-2.852-2.852v0zM8.011 21.673l-0.629-0.16c-4.691-1.185-7.381-3.197-7.381-5.519s2.691-4.333 7.381-5.519l0.629-0.159 0.177 0.624c0.545 1.86 1.163 3.443 1.899 4.957l-0.082-0.186 0.135 0.284-0.135 0.284c-0.656 1.329-1.275 2.912-1.761 4.551l-0.056 0.22zM7.089 11.933c-3.565 1.001-5.753 2.533-5.753 4.061 0 1.527 2.188 3.059 5.753 4.061 0.512-1.62 1.046-2.965 1.662-4.263l-0.086 0.202c-0.531-1.098-1.066-2.443-1.511-3.828l-0.065-0.234zM23.989 21.673l-0.177-0.625c-0.544-1.859-1.162-3.441-1.9-4.954l0.081 0.184-0.135-0.284 0.135-0.284c0.656-1.329 1.275-2.911 1.762-4.55l0.056-0.221 0.177-0.624 0.631 0.159c4.689 1.185 7.38 3.197 7.38 5.52s-2.691 4.333-7.38 5.519zM23.335 15.995c0.64 1.385 1.169 2.747 1.576 4.061 3.567-1.003 5.753-2.535 5.753-4.061 0-1.528-2.188-3.059-5.753-4.061-0.511 1.619-1.045 2.963-1.662 4.262l0.086-0.2zM7.080 11.927l-0.177-0.623c-1.319-4.648-0.919-7.979 1.097-9.141 1.977-1.141 5.152 0.207 8.479 3.621l0.453 0.465-0.453 0.465c-1.146 1.19-2.207 2.482-3.162 3.853l-0.068 0.103-0.18 0.257-0.313 0.027c-1.875 0.151-3.596 0.439-5.264 0.86l0.218-0.047zM9.608 3.087c-0.357 0-0.673 0.077-0.94 0.231-1.325 0.764-1.56 3.42-0.647 7.004 1.21-0.285 2.681-0.521 4.18-0.658l0.131-0.010c0.894-1.264 1.792-2.37 2.756-3.414l-0.020 0.022c-2.080-2.025-4.049-3.175-5.46-3.175zM22.393 30.236c-0.001 0-0.001 0 0 0-1.9 0-4.34-1.431-6.872-4.031l-0.453-0.465 0.453-0.465c1.146-1.19 2.206-2.482 3.16-3.854l0.068-0.103 0.18-0.257 0.312-0.027c1.875-0.15 3.597-0.438 5.267-0.858l-0.218 0.046 0.629-0.159 0.179 0.624c1.316 4.645 0.917 7.977-1.099 9.139-0.449 0.259-0.988 0.411-1.562 0.411-0.016 0-0.031-0-0.047-0l0.002 0zM16.932 25.728c2.080 2.025 4.049 3.175 5.46 3.175h0.001c0.356 0 0.673-0.077 0.939-0.231 1.325-0.764 1.561-3.421 0.647-7.005-1.212 0.286-2.682 0.522-4.182 0.658l-0.13 0.010c-0.893 1.265-1.791 2.371-2.755 3.416l0.020-0.022zM24.92 11.927l-0.629-0.159c-1.453-0.376-3.175-0.664-4.939-0.806l-0.111-0.007-0.312-0.027-0.18-0.257c-1.021-1.474-2.082-2.766-3.237-3.966l0.009 0.010-0.453-0.465 0.453-0.465c3.325-3.413 6.499-4.761 8.479-3.621 2.016 1.163 2.416 4.493 1.099 9.14zM19.667 9.653c1.523 0.139 2.969 0.364 4.312 0.668 0.915-3.584 0.679-6.24-0.647-7.004-1.317-0.761-3.793 0.405-6.4 2.944 0.943 1.022 1.841 2.128 2.666 3.289l0.069 0.103zM9.608 30.236c-0.014 0-0.030 0-0.046 0-0.574 0-1.113-0.152-1.577-0.419l0.015 0.008c-2.016-1.161-2.416-4.492-1.097-9.139l0.176-0.624 0.629 0.159c1.54 0.388 3.239 0.661 5.047 0.812l0.313 0.027 0.179 0.257c1.022 1.475 2.083 2.767 3.239 3.967l-0.010-0.010 0.453 0.465-0.453 0.465c-2.531 2.6-4.971 4.031-6.868 4.031zM8.021 21.667c-0.915 3.584-0.679 6.241 0.647 7.005 1.316 0.751 3.791-0.407 6.4-2.944-0.943-1.022-1.841-2.129-2.667-3.29l-0.069-0.103c-1.629-0.146-3.099-0.382-4.534-0.711l0.224 0.043zM16 22.504c-1.097 0-2.225-0.048-3.355-0.141l-0.313-0.027-0.18-0.257c-0.544-0.768-1.139-1.691-1.697-2.639l-0.103-0.19c-0.452-0.758-0.971-1.732-1.45-2.728l-0.105-0.243-0.133-0.284 0.133-0.284c0.584-1.239 1.102-2.212 1.658-3.161l-0.103 0.191c0.552-0.955 1.159-1.907 1.8-2.829l0.18-0.257 0.313-0.027c1.005-0.090 2.174-0.142 3.355-0.142s2.35 0.052 3.505 0.153l-0.15-0.011 0.312 0.027 0.179 0.257c1.177 1.666 2.294 3.567 3.252 5.56l0.104 0.24 0.135 0.284-0.135 0.284c-1.058 2.232-2.176 4.133-3.439 5.925l0.083-0.125-0.179 0.257-0.312 0.027c-1.129 0.093-2.259 0.141-3.356 0.141zM13.071 21.059c1.973 0.148 3.885 0.148 5.86 0 1.004-1.445 1.978-3.104 2.827-4.836l0.101-0.228c-0.947-1.958-1.922-3.617-3.012-5.19l0.083 0.126c-0.877-0.071-1.898-0.111-2.929-0.111s-2.052 0.040-3.063 0.119l0.134-0.008c-1.008 1.447-1.983 3.106-2.83 4.84l-0.099 0.224c0.951 1.96 1.926 3.619 3.014 5.193l-0.085-0.13z"></path>
</symbol>
<symbol id="icon-sass" viewBox="0 0 32 32">
<path fill="#c69" style="fill: var(--color16, #c69)" d="M16 0c8.836 0 16 7.164 16 16s-7.164 16-16 16-16-7.164-16-16 7.164-16 16-16zM12.82 21.331c0.233 0.86 0.208 1.664-0.032 2.389l-0.087 0.24c-0.032 0.081-0.069 0.16-0.104 0.235-0.187 0.387-0.435 0.747-0.74 1.080-0.931 1.012-2.229 1.396-2.787 1.073-0.6-0.349-0.301-1.78 0.779-2.92 1.161-1.224 2.827-2.012 2.827-2.012v-0.004zM26.035 6.849c-0.723-2.844-5.436-3.779-9.896-2.193-2.652 0.943-5.525 2.424-7.591 4.356-2.457 2.295-2.848 4.295-2.687 5.131 0.569 2.948 4.609 4.876 6.271 6.307v0.008c-0.489 0.24-4.075 2.039-4.915 3.9-0.9 1.96 0.14 3.361 0.82 3.54 2.1 0.581 4.26-0.48 5.42-2.199 1.12-1.681 1.021-3.841 0.539-4.901 0.661-0.18 1.44-0.26 2.44-0.139 2.801 0.32 3.361 2.080 3.24 2.8-0.12 0.719-0.697 1.139-0.899 1.259-0.2 0.121-0.26 0.16-0.241 0.241 0.020 0.12 0.121 0.12 0.28 0.1 0.22-0.040 1.461-0.6 1.521-1.961 0.060-1.72-1.581-3.639-4.5-3.6-1.2 0.021-1.961 0.121-2.5 0.341-0.040-0.060-0.081-0.1-0.14-0.14-1.8-1.94-5.14-3.3-5-5.88 0.040-0.94 0.38-3.419 6.4-6.419 4.94-2.461 8.881-1.78 9.561-0.28 0.977 2.139-2.101 6.12-7.241 6.699-1.96 0.22-2.98-0.539-3.241-0.82-0.279-0.3-0.319-0.32-0.419-0.259-0.16 0.080-0.060 0.34 0 0.5 0.16 0.4 0.78 1.1 1.861 1.46 0.939 0.3 3.24 0.479 6-0.6 3.099-1.199 5.519-4.54 4.819-7.34z"></path>
</symbol>
<symbol id="icon-typescript" viewBox="0 0 32 32">
<path fill="#007acc" style="fill: var(--color17, #007acc)" d="M0 16v16h32v-32h-32zM25.788 14.725c0.813 0.203 1.432 0.564 2.001 1.153 0.295 0.315 0.732 0.888 0.767 1.027 0.011 0.040-1.381 0.973-2.224 1.497-0.031 0.020-0.153-0.112-0.289-0.315-0.413-0.6-0.844-0.859-1.504-0.904-0.971-0.067-1.595 0.441-1.589 1.289-0.001 0.015-0.001 0.032-0.001 0.050 0 0.201 0.051 0.391 0.14 0.557l-0.003-0.006c0.213 0.441 0.611 0.707 1.853 1.244 2.292 0.987 3.272 1.636 3.881 2.56 0.68 1.031 0.833 2.677 0.371 3.901-0.507 1.331-1.767 2.235-3.54 2.533-0.548 0.097-1.848 0.083-2.437-0.024-1.285-0.229-2.504-0.864-3.256-1.697-0.295-0.324-0.869-1.173-0.833-1.233 0.015-0.021 0.147-0.103 0.293-0.188 0.144-0.081 0.681-0.392 1.189-0.687l0.92-0.533 0.193 0.285c0.269 0.411 0.857 0.975 1.213 1.163 1.021 0.539 2.423 0.463 3.113-0.157 0.257-0.217 0.419-0.54 0.419-0.9 0-0.021-0.001-0.042-0.002-0.062l0 0.003c0-0.371-0.047-0.533-0.24-0.813-0.248-0.355-0.756-0.653-2.199-1.28-1.651-0.711-2.361-1.152-3.012-1.853-0.392-0.445-0.694-0.981-0.871-1.57l-0.008-0.030c-0.121-0.452-0.152-1.585-0.056-2.041 0.34-1.596 1.544-2.707 3.281-3.037 0.564-0.107 1.875-0.067 2.428 0.071zM18.276 16.061l0.011 1.311h-4.167v11.835h-2.947v-11.835h-4.163v-1.285c0-0.712 0.015-1.307 0.035-1.32 0.016-0.021 2.551-0.032 5.623-0.027l5.593 0.016z"></path>
</symbol>
<symbol id="icon-cheveron-down" viewBox="0 0 20 20">
<path d="M9.293 12.95l0.707 0.707 5.657-5.657-1.414-1.414-4.243 4.242-4.243-4.242-1.414 1.414z"></path>
</symbol>
</defs>
</svg>
